<svg id="Layer_1" data-name="Layer 1" xmlns="http://www.w3.org/2000/svg" viewBox="0 0 255.76 255.76"><path d="M66.51,187.41l28.27,41.18-21.3-8.9L56.17,194.47a78.17,78.17,0,0,1-13.46-42.08V136.8l12.53-12.53v27.91a65.5,65.5,0,0,0,11.27,35.23Z" fill="#363062"/><path d="M209,176.78a79.55,79.55,0,0,1-9.28,18.81l-14.35,23.1h0L165.43,227l23.79-38.32a66.41,66.41,0,0,0,11.29-39.09V89.13L213,101.65v47.68A79.22,79.22,0,0,1,209,176.78Z" fill="#363062"/><path d="M170.38,81.92c.15-15.75-5.9-31.91-18-42.33C139.24,27.07,111.1,20.7,90,36.71c-28.35,19.92-30.9,75.64,9.06,88.71,11.14,3.24,23.85,2.7,33.94-5.81,1.28-1.14,12.52-11.52,10.06-26.94a22.94,22.94,0,0,0-22.81-20.8c-23.37,0-31.46,31.27-11.5,42.75-43.26-6.32-32.55-75.43,10.86-75,19.45,1,30.41,11.83,35.8,26.62,3.37,9.21,2.22,19.08,2.4,28.68q0,25.6,0,51.22c-.45,7.43,1.69,15.82-3,22.25L137.23,193c-4.08,1.78-13.32,1.83-17.58,0l-17.57-24.65a16.15,16.15,0,0,1-3-9.39V136.59a53.75,53.75,0,0,1-12.51-4.44V159a28.61,28.61,0,0,0,5.33,16.66L128.44,227,165,175.63A28.57,28.57,0,0,0,170.36,159C170.38,133.27,170.28,107.59,170.38,81.92ZM120.26,84.4a10.4,10.4,0,1,1-10.4,10.4A10.41,10.41,0,0,1,120.26,84.4Z" fill="#363062"/></svg>