<svg id="Layer_1" data-name="Layer 1" xmlns="http://www.w3.org/2000/svg" xmlns:xlink="http://www.w3.org/1999/xlink" viewBox="0 0 1920 1080"><defs><pattern id="New_Pattern" data-name="New Pattern" width="171" height="114" patternTransform="translate(807.85)" patternUnits="userSpaceOnUse" viewBox="0 0 171 114"><rect width="171" height="114" fill="none"/><polygon points="171 118.54 166.46 114 171 109.46 175.54 114 171 118.54" fill="#333"/><polygon points="0 118.54 -4.54 114 0 109.46 4.54 114 0 118.54" fill="#333"/><polygon points="171 4.54 166.46 0 171 -4.54 175.54 0 171 4.54" fill="#333"/><polygon points="85.5 61.54 80.96 57 85.5 52.46 90.04 57 85.5 61.54" fill="#333"/><polygon points="0 4.54 -4.54 0 0 -4.54 4.54 0 0 4.54" fill="#333"/></pattern></defs><rect width="1920" height="1080" fill="#212121"/><rect width="1920" height="1080" fill="url(#New_Pattern)"/><rect x="834.46" y="373.52" width="251.07" height="291.19" fill="#212121"/><path d="M1037.84,464.92V531.6a72.64,72.64,0,0,1-12.35,42.77l-32.32,52.07" fill="none" stroke="#7759ff" stroke-miterlimit="10" stroke-width="12.52"/><path d="M880.05,474.94v59.5a71.87,71.87,0,0,0,12.35,38.67l32.32,47.07" fill="none" stroke="#7759ff" stroke-miterlimit="10" stroke-width="12.52"/><rect x="851.6" y="603.71" width="106.46" height="40.85" transform="translate(310.63 -300.63) rotate(22.68)" fill="#212121"/><rect x="952.42" y="607.63" width="103.79" height="40.4" transform="translate(2173.05 819.84) rotate(157.32)" fill="#212121"/><rect x="1016.05" y="454.57" width="53.32" height="23.09" transform="translate(634.99 -600.78) rotate(45)" fill="#212121"/><rect x="853.06" y="463.99" width="38.28" height="59.02" transform="translate(604.42 -472.2) rotate(45)" fill="#212121"/><path d="M995.15,462.76l0,78.38a22.51,22.51,0,0,1-4.17,13l-31.49,44.16-31.45-44.13a22.52,22.52,0,0,1-4.17-13V506.42" fill="none" stroke="#7759ff" stroke-miterlimit="10" stroke-width="12.52"/><path d="M943.8,520a53.7,53.7,0,0,1-40.24-15.81q3.18-8.07,6.35-16.16a50,50,0,0,0,40.24,15.82Q947,511.9,943.8,520Z" fill="#212121"/><path d="M968,475.83c1.93,12.22-7.49,20.77-8,21.26-6.47,5.67-14.05,5.92-17.24,6-13.47.45-22.82-8-24.7-9.77-12-11.34-11.92-27.7-11.9-31.93,0-.7,0-1.27,0-1.67.64-17.72,11.62-30.56,18.69-35.84l.58-.42c10.89-7.86,23.14-8,25.29-8a44.69,44.69,0,0,1,27.91,10.34c14.21,11.78,16.19,28.79,16.54,34.49,0,.73,0,1.47,0,1.47v2.24" fill="none" stroke="#7759ff" stroke-miterlimit="10" stroke-width="12.52"/><path d="M970.45,583.67l-11.09,5.78-10.76-5.78v-9.25a27.72,27.72,0,0,0,21.85,0Z" fill="#7759ff"/><circle cx="951.33" cy="476.98" r="16.66" fill="none" stroke="#7759ff" stroke-miterlimit="10" stroke-width="12.52"/></svg>