<svg id="Layer_1" data-name="Layer 1" xmlns="http://www.w3.org/2000/svg" viewBox="0 0 1920 1080"><rect width="1920" height="1080" fill="#212121"/><rect x="1897.29" y="80.25" width="6.42" height="6.42" transform="translate(497.63 1368.3) rotate(-45)" fill="#333"/><rect x="1897.29" y="194.25" width="6.42" height="6.42" transform="translate(417.02 1401.69) rotate(-45)" fill="#333"/><rect x="1897.29" y="80.25" width="6.42" height="6.42" transform="translate(497.63 1368.3) rotate(-45)" fill="#333"/><rect x="1897.29" y="308.25" width="6.42" height="6.42" transform="translate(336.41 1435.08) rotate(-45)" fill="#333"/><rect x="1897.29" y="194.25" width="6.42" height="6.42" transform="translate(417.02 1401.69) rotate(-45)" fill="#333"/><rect x="1897.29" y="422.25" width="6.42" height="6.42" transform="translate(255.8 1468.47) rotate(-45)" fill="#333"/><rect x="1897.29" y="308.25" width="6.42" height="6.42" transform="translate(336.41 1435.08) rotate(-45)" fill="#333"/><rect x="1897.29" y="536.25" width="6.42" height="6.42" transform="translate(175.19 1501.86) rotate(-45)" fill="#333"/><rect x="1897.29" y="422.25" width="6.42" height="6.42" transform="translate(255.8 1468.47) rotate(-45)" fill="#333"/><rect x="1897.29" y="650.25" width="6.42" height="6.42" transform="translate(94.58 1535.25) rotate(-45)" fill="#333"/><rect x="1897.29" y="536.25" width="6.42" height="6.42" transform="translate(175.19 1501.86) rotate(-45)" fill="#333"/><rect x="1897.29" y="764.25" width="6.42" height="6.42" transform="translate(13.97 1568.64) rotate(-45)" fill="#333"/><rect x="1897.29" y="650.25" width="6.42" height="6.42" transform="translate(94.58 1535.25) rotate(-45)" fill="#333"/><rect x="1897.29" y="878.25" width="6.42" height="6.42" transform="translate(-66.64 1602.03) rotate(-45)" fill="#333"/><rect x="1897.29" y="764.25" width="6.42" height="6.42" transform="translate(13.97 1568.64) rotate(-45)" fill="#333"/><rect x="1897.29" y="992.25" width="6.42" height="6.42" transform="translate(-147.25 1635.42) rotate(-45)" fill="#333"/><rect x="1897.29" y="878.25" width="6.42" height="6.42" transform="translate(-66.64 1602.03) rotate(-45)" fill="#333"/><rect x="1897.29" y="992.25" width="6.42" height="6.42" transform="translate(-147.25 1635.42) rotate(-45)" fill="#333"/><rect x="1897.29" y="80.25" width="6.42" height="6.42" transform="translate(497.63 1368.3) rotate(-45)" fill="#333"/><rect x="1726.29" y="80.25" width="6.42" height="6.42" transform="translate(447.54 1247.39) rotate(-45)" fill="#333"/><rect x="1811.79" y="23.25" width="6.42" height="6.42" transform="translate(512.89 1291.15) rotate(-45)" fill="#333"/><rect x="1897.29" y="194.25" width="6.42" height="6.42" transform="translate(417.02 1401.69) rotate(-45)" fill="#333"/><rect x="1726.29" y="194.25" width="6.42" height="6.42" transform="translate(366.93 1280.78) rotate(-45)" fill="#333"/><rect x="1897.29" y="80.25" width="6.42" height="6.42" transform="translate(497.63 1368.3) rotate(-45)" fill="#333"/><rect x="1811.79" y="137.25" width="6.42" height="6.42" transform="translate(432.28 1324.54) rotate(-45)" fill="#333"/><rect x="1726.29" y="80.25" width="6.42" height="6.42" transform="translate(447.54 1247.39) rotate(-45)" fill="#333"/><rect x="1897.29" y="308.25" width="6.42" height="6.42" transform="translate(336.41 1435.08) rotate(-45)" fill="#333"/><rect x="1726.29" y="308.25" width="6.42" height="6.42" transform="translate(286.32 1314.17) rotate(-45)" fill="#333"/><rect x="1897.29" y="194.25" width="6.42" height="6.42" transform="translate(417.02 1401.69) rotate(-45)" fill="#333"/><rect x="1811.79" y="251.25" width="6.42" height="6.42" transform="translate(351.67 1357.93) rotate(-45)" fill="#333"/><rect x="1726.29" y="194.25" width="6.42" height="6.42" transform="translate(366.93 1280.78) rotate(-45)" fill="#333"/><rect x="1897.29" y="422.25" width="6.42" height="6.42" transform="translate(255.8 1468.47) rotate(-45)" fill="#333"/><rect x="1726.29" y="422.25" width="6.42" height="6.42" transform="translate(205.71 1347.56) rotate(-45)" fill="#333"/><rect x="1897.29" y="308.25" width="6.42" height="6.42" transform="translate(336.41 1435.08) rotate(-45)" fill="#333"/><rect x="1811.79" y="365.25" width="6.42" height="6.42" transform="translate(271.06 1391.32) rotate(-45)" fill="#333"/><rect x="1726.29" y="308.25" width="6.42" height="6.42" transform="translate(286.32 1314.17) rotate(-45)" fill="#333"/><rect x="1897.29" y="536.25" width="6.42" height="6.42" transform="translate(175.19 1501.86) rotate(-45)" fill="#333"/><rect x="1726.29" y="536.25" width="6.42" height="6.42" transform="translate(125.1 1380.95) rotate(-45)" fill="#333"/><rect x="1897.29" y="422.25" width="6.42" height="6.42" transform="translate(255.8 1468.47) rotate(-45)" fill="#333"/><rect x="1811.79" y="479.25" width="6.42" height="6.42" transform="translate(190.45 1424.71) rotate(-45)" fill="#333"/><rect x="1726.29" y="422.25" width="6.42" height="6.42" transform="translate(205.71 1347.56) rotate(-45)" fill="#333"/><rect x="1897.29" y="650.25" width="6.42" height="6.42" transform="translate(94.58 1535.25) rotate(-45)" fill="#333"/><rect x="1726.29" y="650.25" width="6.42" height="6.42" transform="translate(44.49 1414.34) rotate(-45)" fill="#333"/><rect x="1897.29" y="536.25" width="6.42" height="6.42" transform="translate(175.19 1501.86) rotate(-45)" fill="#333"/><rect x="1811.79" y="593.25" width="6.42" height="6.42" transform="translate(109.84 1458.1) rotate(-45)" fill="#333"/><rect x="1726.29" y="536.25" width="6.42" height="6.42" transform="translate(125.1 1380.95) rotate(-45)" fill="#333"/><rect x="1897.29" y="764.25" width="6.42" height="6.42" transform="translate(13.97 1568.64) rotate(-45)" fill="#333"/><rect x="1726.29" y="764.25" width="6.42" height="6.42" transform="translate(-36.12 1447.73) rotate(-45)" fill="#333"/><rect x="1897.29" y="650.25" width="6.42" height="6.42" transform="translate(94.58 1535.25) rotate(-45)" fill="#333"/><rect x="1811.79" y="707.25" width="6.42" height="6.42" transform="translate(29.23 1491.49) rotate(-45)" fill="#333"/><rect x="1726.29" y="650.25" width="6.42" height="6.42" transform="translate(44.49 1414.34) rotate(-45)" fill="#333"/><rect x="1897.29" y="878.25" width="6.42" height="6.42" transform="translate(-66.64 1602.03) rotate(-45)" fill="#333"/><rect x="1726.29" y="878.25" width="6.42" height="6.42" transform="translate(-116.73 1481.12) rotate(-45)" fill="#333"/><rect x="1897.29" y="764.25" width="6.42" height="6.42" transform="translate(13.97 1568.64) rotate(-45)" fill="#333"/><rect x="1811.79" y="821.25" width="6.42" height="6.42" transform="translate(-51.38 1524.88) rotate(-45)" fill="#333"/><rect x="1726.29" y="764.25" width="6.42" height="6.42" transform="translate(-36.12 1447.73) rotate(-45)" fill="#333"/><rect x="1897.29" y="992.25" width="6.42" height="6.42" transform="translate(-147.25 1635.42) rotate(-45)" fill="#333"/><rect x="1726.29" y="992.25" width="6.42" height="6.42" transform="translate(-197.34 1514.51) rotate(-45)" fill="#333"/><rect x="1897.29" y="878.25" width="6.42" height="6.42" transform="translate(-66.64 1602.03) rotate(-45)" fill="#333"/><rect x="1811.79" y="935.25" width="6.42" height="6.42" transform="translate(-131.99 1558.27) rotate(-45)" fill="#333"/><rect x="1726.29" y="878.25" width="6.42" height="6.42" transform="translate(-116.73 1481.12) rotate(-45)" fill="#333"/><rect x="1897.29" y="992.25" width="6.42" height="6.42" transform="translate(-147.25 1635.42) rotate(-45)" fill="#333"/><rect x="1811.79" y="1049.25" width="6.42" height="6.42" transform="translate(-212.6 1591.66) rotate(-45)" fill="#333"/><rect x="1726.29" y="992.25" width="6.42" height="6.42" transform="translate(-197.34 1514.51) rotate(-45)" fill="#333"/><rect x="1726.29" y="80.25" width="6.42" height="6.42" transform="translate(447.54 1247.39) rotate(-45)" fill="#333"/><rect x="1555.29" y="80.25" width="6.42" height="6.42" transform="translate(397.46 1126.47) rotate(-45)" fill="#333"/><rect x="1640.79" y="23.25" width="6.42" height="6.42" transform="translate(462.8 1170.23) rotate(-45)" fill="#333"/><rect x="1726.29" y="194.25" width="6.42" height="6.42" transform="translate(366.93 1280.78) rotate(-45)" fill="#333"/><rect x="1555.29" y="194.25" width="6.42" height="6.42" transform="translate(316.85 1159.86) rotate(-45)" fill="#333"/><rect x="1726.29" y="80.25" width="6.42" height="6.42" transform="translate(447.54 1247.39) rotate(-45)" fill="#333"/><rect x="1640.79" y="137.25" width="6.42" height="6.42" transform="translate(382.19 1203.62) rotate(-45)" fill="#333"/><rect x="1555.29" y="80.25" width="6.42" height="6.42" transform="translate(397.46 1126.47) rotate(-45)" fill="#333"/><rect x="1726.29" y="308.25" width="6.42" height="6.42" transform="translate(286.32 1314.17) rotate(-45)" fill="#333"/><rect x="1555.29" y="308.25" width="6.42" height="6.42" transform="translate(236.24 1193.25) rotate(-45)" fill="#333"/><rect x="1726.29" y="194.25" width="6.42" height="6.42" transform="translate(366.93 1280.78) rotate(-45)" fill="#333"/><rect x="1640.79" y="251.25" width="6.42" height="6.42" transform="translate(301.58 1237.01) rotate(-45)" fill="#333"/><rect x="1555.29" y="194.25" width="6.42" height="6.42" transform="translate(316.85 1159.86) rotate(-45)" fill="#333"/><rect x="1726.29" y="422.25" width="6.42" height="6.42" transform="translate(205.71 1347.56) rotate(-45)" fill="#333"/><rect x="1555.29" y="422.25" width="6.42" height="6.42" transform="translate(155.63 1226.64) rotate(-45)" fill="#333"/><rect x="1726.29" y="308.25" width="6.42" height="6.42" transform="translate(286.32 1314.17) rotate(-45)" fill="#333"/><rect x="1640.79" y="365.25" width="6.42" height="6.42" transform="translate(220.97 1270.4) rotate(-45)" fill="#333"/><rect x="1555.29" y="308.25" width="6.42" height="6.42" transform="translate(236.24 1193.25) rotate(-45)" fill="#333"/><rect x="1726.29" y="536.25" width="6.42" height="6.42" transform="translate(125.1 1380.95) rotate(-45)" fill="#333"/><rect x="1555.29" y="536.25" width="6.42" height="6.42" transform="translate(75.02 1260.03) rotate(-45)" fill="#333"/><rect x="1726.29" y="422.25" width="6.42" height="6.42" transform="translate(205.71 1347.56) rotate(-45)" fill="#333"/><rect x="1640.79" y="479.25" width="6.42" height="6.42" transform="translate(140.36 1303.79) rotate(-45)" fill="#333"/><rect x="1555.29" y="422.25" width="6.42" height="6.42" transform="translate(155.63 1226.64) rotate(-45)" fill="#333"/><rect x="1726.29" y="650.25" width="6.42" height="6.42" transform="translate(44.49 1414.34) rotate(-45)" fill="#333"/><rect x="1555.29" y="650.25" width="6.42" height="6.42" transform="translate(-5.59 1293.42) rotate(-45)" fill="#333"/><rect x="1726.29" y="536.25" width="6.42" height="6.42" transform="translate(125.1 1380.95) rotate(-45)" fill="#333"/><rect x="1640.79" y="593.25" width="6.42" height="6.42" transform="translate(59.75 1337.18) rotate(-45)" fill="#333"/><rect x="1555.29" y="536.25" width="6.42" height="6.42" transform="translate(75.02 1260.03) rotate(-45)" fill="#333"/><rect x="1726.29" y="764.25" width="6.42" height="6.42" transform="translate(-36.12 1447.73) rotate(-45)" fill="#333"/><rect x="1555.29" y="764.25" width="6.42" height="6.42" transform="translate(-86.2 1326.81) rotate(-45)" fill="#333"/><rect x="1726.29" y="650.25" width="6.42" height="6.42" transform="translate(44.49 1414.34) rotate(-45)" fill="#333"/><rect x="1640.79" y="707.25" width="6.42" height="6.42" transform="translate(-20.86 1370.57) rotate(-45)" fill="#333"/><rect x="1555.29" y="650.25" width="6.42" height="6.42" transform="translate(-5.59 1293.42) rotate(-45)" fill="#333"/><rect x="1726.29" y="878.25" width="6.42" height="6.42" transform="translate(-116.73 1481.12) rotate(-45)" fill="#333"/><rect x="1555.29" y="878.25" width="6.42" height="6.42" transform="translate(-166.81 1360.2) rotate(-45)" fill="#333"/><rect x="1726.29" y="764.25" width="6.42" height="6.42" transform="translate(-36.12 1447.73) rotate(-45)" fill="#333"/><rect x="1640.79" y="821.25" width="6.42" height="6.42" transform="translate(-101.47 1403.96) rotate(-45)" fill="#333"/><rect x="1555.29" y="764.25" width="6.42" height="6.42" transform="translate(-86.2 1326.81) rotate(-45)" fill="#333"/><rect x="1726.29" y="992.25" width="6.42" height="6.42" transform="translate(-197.34 1514.51) rotate(-45)" fill="#333"/><rect x="1555.29" y="992.25" width="6.42" height="6.42" transform="translate(-247.42 1393.59) rotate(-45)" fill="#333"/><rect x="1726.29" y="878.25" width="6.42" height="6.42" transform="translate(-116.73 1481.12) rotate(-45)" fill="#333"/><rect x="1640.79" y="935.25" width="6.42" height="6.42" transform="translate(-182.08 1437.35) rotate(-45)" fill="#333"/><rect x="1555.29" y="878.25" width="6.42" height="6.42" transform="translate(-166.81 1360.2) rotate(-45)" fill="#333"/><rect x="1726.29" y="992.25" width="6.42" height="6.42" transform="translate(-197.34 1514.51) rotate(-45)" fill="#333"/><rect x="1640.79" y="1049.25" width="6.42" height="6.42" transform="translate(-262.69 1470.74) rotate(-45)" fill="#333"/><rect x="1555.29" y="992.25" width="6.42" height="6.42" transform="translate(-247.42 1393.59) rotate(-45)" fill="#333"/><rect x="1555.29" y="80.25" width="6.42" height="6.42" transform="translate(397.46 1126.47) rotate(-45)" fill="#333"/><rect x="1384.29" y="80.25" width="6.42" height="6.42" transform="translate(347.37 1005.56) rotate(-45)" fill="#333"/><rect x="1469.79" y="23.25" width="6.42" height="6.42" transform="translate(412.72 1049.32) rotate(-45)" fill="#333"/><rect x="1555.29" y="194.25" width="6.42" height="6.42" transform="translate(316.85 1159.86) rotate(-45)" fill="#333"/><rect x="1384.29" y="194.25" width="6.42" height="6.42" transform="translate(266.76 1038.95) rotate(-45)" fill="#333"/><rect x="1555.29" y="80.25" width="6.42" height="6.42" transform="translate(397.46 1126.47) rotate(-45)" fill="#333"/><rect x="1469.79" y="137.25" width="6.42" height="6.42" transform="translate(332.11 1082.71) rotate(-45)" fill="#333"/><rect x="1384.29" y="80.25" width="6.42" height="6.42" transform="translate(347.37 1005.56) rotate(-45)" fill="#333"/><rect x="1555.29" y="308.25" width="6.42" height="6.42" transform="translate(236.24 1193.25) rotate(-45)" fill="#333"/><rect x="1384.29" y="308.25" width="6.42" height="6.42" transform="translate(186.15 1072.34) rotate(-45)" fill="#333"/><rect x="1555.29" y="194.25" width="6.42" height="6.42" transform="translate(316.85 1159.86) rotate(-45)" fill="#333"/><rect x="1469.79" y="251.25" width="6.42" height="6.42" transform="translate(251.5 1116.1) rotate(-45)" fill="#333"/><rect x="1384.29" y="194.25" width="6.42" height="6.42" transform="translate(266.76 1038.95) rotate(-45)" fill="#333"/><rect x="1555.29" y="422.25" width="6.42" height="6.42" transform="translate(155.63 1226.64) rotate(-45)" fill="#333"/><rect x="1384.29" y="422.25" width="6.42" height="6.42" transform="translate(105.54 1105.73) rotate(-45)" fill="#333"/><rect x="1555.29" y="308.25" width="6.42" height="6.42" transform="translate(236.24 1193.25) rotate(-45)" fill="#333"/><rect x="1469.79" y="365.25" width="6.42" height="6.42" transform="translate(170.89 1149.49) rotate(-45)" fill="#333"/><rect x="1384.29" y="308.25" width="6.42" height="6.42" transform="translate(186.15 1072.34) rotate(-45)" fill="#333"/><rect x="1555.29" y="536.25" width="6.42" height="6.42" transform="translate(75.02 1260.03) rotate(-45)" fill="#333"/><rect x="1384.29" y="536.25" width="6.42" height="6.42" transform="translate(24.93 1139.12) rotate(-45)" fill="#333"/><rect x="1555.29" y="422.25" width="6.42" height="6.42" transform="translate(155.63 1226.64) rotate(-45)" fill="#333"/><rect x="1469.79" y="479.25" width="6.42" height="6.42" transform="translate(90.28 1182.88) rotate(-45)" fill="#333"/><rect x="1384.29" y="422.25" width="6.42" height="6.42" transform="translate(105.54 1105.73) rotate(-45)" fill="#333"/><rect x="1555.29" y="650.25" width="6.42" height="6.42" transform="translate(-5.59 1293.42) rotate(-45)" fill="#333"/><rect x="1384.29" y="650.25" width="6.42" height="6.42" transform="translate(-55.68 1172.51) rotate(-45)" fill="#333"/><rect x="1555.29" y="536.25" width="6.42" height="6.42" transform="translate(75.02 1260.03) rotate(-45)" fill="#333"/><rect x="1469.79" y="593.25" width="6.42" height="6.42" transform="translate(9.67 1216.27) rotate(-45)" fill="#333"/><rect x="1384.29" y="536.25" width="6.42" height="6.42" transform="translate(24.93 1139.12) rotate(-45)" fill="#333"/><rect x="1555.29" y="764.25" width="6.42" height="6.42" transform="translate(-86.2 1326.81) rotate(-45)" fill="#333"/><rect x="1384.29" y="764.25" width="6.42" height="6.42" transform="translate(-136.29 1205.9) rotate(-45)" fill="#333"/><rect x="1555.29" y="650.25" width="6.42" height="6.42" transform="translate(-5.59 1293.42) rotate(-45)" fill="#333"/><rect x="1469.79" y="707.25" width="6.42" height="6.42" transform="translate(-70.94 1249.66) rotate(-45)" fill="#333"/><rect x="1384.29" y="650.25" width="6.42" height="6.42" transform="translate(-55.68 1172.51) rotate(-45)" fill="#333"/><rect x="1555.29" y="878.25" width="6.42" height="6.42" transform="translate(-166.81 1360.2) rotate(-45)" fill="#333"/><rect x="1384.29" y="878.25" width="6.42" height="6.42" transform="translate(-216.9 1239.29) rotate(-45)" fill="#333"/><rect x="1555.29" y="764.25" width="6.42" height="6.42" transform="translate(-86.2 1326.81) rotate(-45)" fill="#333"/><rect x="1469.79" y="821.25" width="6.42" height="6.42" transform="translate(-151.55 1283.05) rotate(-45)" fill="#333"/><rect x="1384.29" y="764.25" width="6.42" height="6.42" transform="translate(-136.29 1205.9) rotate(-45)" fill="#333"/><rect x="1555.29" y="992.25" width="6.42" height="6.42" transform="translate(-247.42 1393.59) rotate(-45)" fill="#333"/><rect x="1384.29" y="992.25" width="6.42" height="6.42" transform="translate(-297.51 1272.67) rotate(-45)" fill="#333"/><rect x="1555.29" y="878.25" width="6.42" height="6.42" transform="translate(-166.81 1360.2) rotate(-45)" fill="#333"/><rect x="1469.79" y="935.25" width="6.42" height="6.42" transform="translate(-232.16 1316.44) rotate(-45)" fill="#333"/><rect x="1384.29" y="878.25" width="6.42" height="6.42" transform="translate(-216.9 1239.29) rotate(-45)" fill="#333"/><rect x="1555.29" y="992.25" width="6.42" height="6.42" transform="translate(-247.42 1393.59) rotate(-45)" fill="#333"/><rect x="1469.79" y="1049.25" width="6.42" height="6.42" transform="translate(-312.77 1349.83) rotate(-45)" fill="#333"/><rect x="1384.29" y="992.25" width="6.42" height="6.42" transform="translate(-297.51 1272.67) rotate(-45)" fill="#333"/><rect x="1384.29" y="80.25" width="6.42" height="6.42" transform="translate(347.37 1005.56) rotate(-45)" fill="#333"/><rect x="1213.29" y="80.25" width="6.42" height="6.42" transform="translate(297.29 884.64) rotate(-45)" fill="#333"/><rect x="1298.79" y="23.25" width="6.42" height="6.42" transform="translate(362.64 928.4) rotate(-45)" fill="#333"/><rect x="1384.29" y="194.25" width="6.42" height="6.42" transform="translate(266.76 1038.95) rotate(-45)" fill="#333"/><rect x="1213.29" y="194.25" width="6.42" height="6.42" transform="translate(216.68 918.03) rotate(-45)" fill="#333"/><rect x="1384.29" y="80.25" width="6.42" height="6.42" transform="translate(347.37 1005.56) rotate(-45)" fill="#333"/><rect x="1298.79" y="137.25" width="6.42" height="6.42" transform="translate(282.03 961.79) rotate(-45)" fill="#333"/><rect x="1213.29" y="80.25" width="6.42" height="6.42" transform="translate(297.29 884.64) rotate(-45)" fill="#333"/><rect x="1384.29" y="308.25" width="6.42" height="6.42" transform="translate(186.15 1072.34) rotate(-45)" fill="#333"/><rect x="1213.29" y="308.25" width="6.42" height="6.42" transform="translate(136.07 951.42) rotate(-45)" fill="#333"/><rect x="1384.29" y="194.25" width="6.42" height="6.42" transform="translate(266.76 1038.95) rotate(-45)" fill="#333"/><rect x="1298.79" y="251.25" width="6.42" height="6.42" transform="translate(201.41 995.18) rotate(-45)" fill="#333"/><rect x="1213.29" y="194.25" width="6.42" height="6.42" transform="translate(216.68 918.03) rotate(-45)" fill="#333"/><rect x="1384.29" y="422.25" width="6.42" height="6.42" transform="translate(105.54 1105.73) rotate(-45)" fill="#333"/><rect x="1213.29" y="422.25" width="6.42" height="6.42" transform="translate(55.46 984.81) rotate(-45)" fill="#333"/><rect x="1384.29" y="308.25" width="6.42" height="6.42" transform="translate(186.15 1072.34) rotate(-45)" fill="#333"/><rect x="1298.79" y="365.25" width="6.42" height="6.42" transform="translate(120.8 1028.57) rotate(-45)" fill="#333"/><rect x="1213.29" y="308.25" width="6.42" height="6.42" transform="translate(136.07 951.42) rotate(-45)" fill="#333"/><rect x="1384.29" y="536.25" width="6.42" height="6.42" transform="translate(24.93 1139.12) rotate(-45)" fill="#333"/><rect x="1213.29" y="536.25" width="6.42" height="6.42" transform="translate(-25.15 1018.2) rotate(-45)" fill="#333"/><rect x="1384.29" y="422.25" width="6.42" height="6.42" transform="translate(105.54 1105.73) rotate(-45)" fill="#333"/><rect x="1298.79" y="479.25" width="6.42" height="6.42" transform="translate(40.19 1061.96) rotate(-45)" fill="#333"/><rect x="1213.29" y="422.25" width="6.42" height="6.42" transform="translate(55.46 984.81) rotate(-45)" fill="#333"/><rect x="1384.29" y="650.25" width="6.42" height="6.42" transform="translate(-55.68 1172.51) rotate(-45)" fill="#333"/><rect x="1213.29" y="650.25" width="6.42" height="6.42" transform="translate(-105.76 1051.59) rotate(-45)" fill="#333"/><rect x="1384.29" y="536.25" width="6.42" height="6.42" transform="translate(24.93 1139.12) rotate(-45)" fill="#333"/><rect x="1298.79" y="593.25" width="6.42" height="6.42" transform="translate(-40.42 1095.35) rotate(-45)" fill="#333"/><rect x="1213.29" y="536.25" width="6.42" height="6.42" transform="translate(-25.15 1018.2) rotate(-45)" fill="#333"/><rect x="1384.29" y="764.25" width="6.42" height="6.42" transform="translate(-136.29 1205.9) rotate(-45)" fill="#333"/><rect x="1213.29" y="764.25" width="6.42" height="6.42" transform="translate(-186.37 1084.98) rotate(-45)" fill="#333"/><rect x="1384.29" y="650.25" width="6.42" height="6.42" transform="translate(-55.68 1172.51) rotate(-45)" fill="#333"/><rect x="1298.79" y="707.25" width="6.42" height="6.42" transform="translate(-121.03 1128.74) rotate(-45)" fill="#333"/><rect x="1213.29" y="650.25" width="6.42" height="6.42" transform="translate(-105.76 1051.59) rotate(-45)" fill="#333"/><rect x="1384.29" y="878.25" width="6.42" height="6.42" transform="translate(-216.9 1239.29) rotate(-45)" fill="#333"/><rect x="1213.29" y="878.25" width="6.42" height="6.42" transform="translate(-266.98 1118.37) rotate(-45)" fill="#333"/><rect x="1384.29" y="764.25" width="6.42" height="6.42" transform="translate(-136.29 1205.9) rotate(-45)" fill="#333"/><rect x="1298.79" y="821.25" width="6.42" height="6.42" transform="translate(-201.64 1162.13) rotate(-45)" fill="#333"/><rect x="1213.29" y="764.25" width="6.42" height="6.42" transform="translate(-186.37 1084.98) rotate(-45)" fill="#333"/><rect x="1384.29" y="992.25" width="6.42" height="6.42" transform="translate(-297.51 1272.67) rotate(-45)" fill="#333"/><rect x="1213.29" y="992.25" width="6.42" height="6.42" transform="translate(-347.59 1151.76) rotate(-45)" fill="#333"/><rect x="1384.29" y="878.25" width="6.42" height="6.42" transform="translate(-216.9 1239.29) rotate(-45)" fill="#333"/><rect x="1298.79" y="935.25" width="6.42" height="6.42" transform="translate(-282.25 1195.52) rotate(-45)" fill="#333"/><rect x="1213.29" y="878.25" width="6.42" height="6.42" transform="translate(-266.98 1118.37) rotate(-45)" fill="#333"/><rect x="1384.29" y="992.25" width="6.42" height="6.42" transform="translate(-297.51 1272.67) rotate(-45)" fill="#333"/><rect x="1298.79" y="1049.25" width="6.42" height="6.42" transform="translate(-362.86 1228.91) rotate(-45)" fill="#333"/><rect x="1213.29" y="992.25" width="6.42" height="6.42" transform="translate(-347.59 1151.76) rotate(-45)" fill="#333"/><rect x="1213.29" y="80.25" width="6.42" height="6.42" transform="translate(297.29 884.64) rotate(-45)" fill="#333"/><rect x="1042.29" y="80.25" width="6.42" height="6.42" transform="translate(247.2 763.73) rotate(-45)" fill="#333"/><rect x="1127.79" y="23.25" width="6.42" height="6.42" transform="translate(312.55 807.49) rotate(-45)" fill="#333"/><rect x="1213.29" y="194.25" width="6.42" height="6.42" transform="translate(216.68 918.03) rotate(-45)" fill="#333"/><rect x="1042.29" y="194.25" width="6.42" height="6.42" transform="translate(166.59 797.12) rotate(-45)" fill="#333"/><rect x="1213.29" y="80.25" width="6.42" height="6.42" transform="translate(297.29 884.64) rotate(-45)" fill="#333"/><rect x="1127.79" y="137.25" width="6.42" height="6.42" transform="translate(231.94 840.88) rotate(-45)" fill="#333"/><rect x="1042.29" y="80.25" width="6.42" height="6.42" transform="translate(247.2 763.73) rotate(-45)" fill="#333"/><rect x="1213.29" y="308.25" width="6.42" height="6.42" transform="translate(136.07 951.42) rotate(-45)" fill="#333"/><rect x="1042.29" y="308.25" width="6.42" height="6.42" transform="translate(85.98 830.51) rotate(-45)" fill="#333"/><rect x="1213.29" y="194.25" width="6.42" height="6.42" transform="translate(216.68 918.03) rotate(-45)" fill="#333"/><rect x="1127.79" y="251.25" width="6.42" height="6.42" transform="translate(151.33 874.27) rotate(-45)" fill="#333"/><rect x="1042.29" y="194.25" width="6.42" height="6.42" transform="translate(166.59 797.12) rotate(-45)" fill="#333"/><rect x="1213.29" y="422.25" width="6.42" height="6.42" transform="translate(55.46 984.81) rotate(-45)" fill="#333"/><rect x="1042.29" y="422.25" width="6.42" height="6.42" transform="translate(5.37 863.9) rotate(-45)" fill="#333"/><rect x="1213.29" y="308.25" width="6.42" height="6.42" transform="translate(136.07 951.42) rotate(-45)" fill="#333"/><rect x="1127.79" y="365.25" width="6.42" height="6.42" transform="translate(70.72 907.66) rotate(-45)" fill="#333"/><rect x="1042.29" y="308.25" width="6.42" height="6.42" transform="translate(85.98 830.51) rotate(-45)" fill="#333"/><rect x="1213.29" y="536.25" width="6.42" height="6.42" transform="translate(-25.15 1018.2) rotate(-45)" fill="#333"/><rect x="1042.29" y="536.25" width="6.42" height="6.42" transform="translate(-75.24 897.29) rotate(-45)" fill="#333"/><rect x="1213.29" y="422.25" width="6.42" height="6.42" transform="translate(55.46 984.81) rotate(-45)" fill="#333"/><rect x="1127.79" y="479.25" width="6.42" height="6.42" transform="translate(-9.89 941.05) rotate(-45)" fill="#333"/><rect x="1042.29" y="422.25" width="6.42" height="6.42" transform="translate(5.37 863.9) rotate(-45)" fill="#333"/><rect x="1213.29" y="650.25" width="6.42" height="6.42" transform="translate(-105.76 1051.59) rotate(-45)" fill="#333"/><rect x="1042.29" y="650.25" width="6.42" height="6.42" transform="translate(-155.85 930.67) rotate(-45)" fill="#333"/><rect x="1213.29" y="536.25" width="6.42" height="6.42" transform="translate(-25.15 1018.2) rotate(-45)" fill="#333"/><rect x="1127.79" y="593.25" width="6.42" height="6.42" transform="translate(-90.5 974.44) rotate(-45)" fill="#333"/><rect x="1042.29" y="536.25" width="6.42" height="6.42" transform="translate(-75.24 897.29) rotate(-45)" fill="#333"/><rect x="1213.29" y="764.25" width="6.42" height="6.42" transform="translate(-186.37 1084.98) rotate(-45)" fill="#333"/><rect x="1042.29" y="764.25" width="6.42" height="6.42" transform="translate(-236.46 964.06) rotate(-45)" fill="#333"/><rect x="1213.29" y="650.25" width="6.42" height="6.42" transform="translate(-105.76 1051.59) rotate(-45)" fill="#333"/><rect x="1127.79" y="707.25" width="6.42" height="6.42" transform="translate(-171.11 1007.83) rotate(-45)" fill="#333"/><rect x="1042.29" y="650.25" width="6.42" height="6.42" transform="translate(-155.85 930.67) rotate(-45)" fill="#333"/><rect x="1213.29" y="878.25" width="6.42" height="6.42" transform="translate(-266.98 1118.37) rotate(-45)" fill="#333"/><rect x="1042.29" y="878.25" width="6.42" height="6.42" transform="translate(-317.07 997.45) rotate(-45)" fill="#333"/><rect x="1213.29" y="764.25" width="6.42" height="6.42" transform="translate(-186.37 1084.98) rotate(-45)" fill="#333"/><rect x="1127.79" y="821.25" width="6.42" height="6.42" transform="translate(-251.72 1041.22) rotate(-45)" fill="#333"/><rect x="1042.29" y="764.25" width="6.42" height="6.42" transform="translate(-236.46 964.06) rotate(-45)" fill="#333"/><rect x="1213.29" y="992.25" width="6.42" height="6.42" transform="translate(-347.59 1151.76) rotate(-45)" fill="#333"/><rect x="1042.29" y="992.25" width="6.42" height="6.42" transform="translate(-397.68 1030.84) rotate(-45)" fill="#333"/><rect x="1213.29" y="878.25" width="6.42" height="6.42" transform="translate(-266.98 1118.37) rotate(-45)" fill="#333"/><rect x="1127.79" y="935.25" width="6.42" height="6.42" transform="translate(-332.33 1074.61) rotate(-45)" fill="#333"/><rect x="1042.29" y="878.25" width="6.42" height="6.42" transform="translate(-317.07 997.45) rotate(-45)" fill="#333"/><rect x="1213.29" y="992.25" width="6.42" height="6.42" transform="translate(-347.59 1151.76) rotate(-45)" fill="#333"/><rect x="1127.79" y="1049.25" width="6.42" height="6.42" transform="translate(-412.94 1108) rotate(-45)" fill="#333"/><rect x="1042.29" y="992.25" width="6.42" height="6.42" transform="translate(-397.68 1030.84) rotate(-45)" fill="#333"/><rect x="1042.29" y="80.25" width="6.42" height="6.42" transform="translate(247.2 763.73) rotate(-45)" fill="#333"/><rect x="871.29" y="80.25" width="6.42" height="6.42" transform="translate(197.12 642.81) rotate(-45)" fill="#333"/><rect x="956.79" y="23.25" width="6.42" height="6.42" transform="translate(262.47 686.57) rotate(-45)" fill="#333"/><rect x="1042.29" y="194.25" width="6.42" height="6.42" transform="translate(166.59 797.12) rotate(-45)" fill="#333"/><rect x="871.29" y="194.25" width="6.42" height="6.42" transform="translate(116.51 676.2) rotate(-45)" fill="#333"/><rect x="1042.29" y="80.25" width="6.42" height="6.42" transform="translate(247.2 763.73) rotate(-45)" fill="#333"/><rect x="956.79" y="137.25" width="6.42" height="6.42" transform="translate(181.86 719.96) rotate(-45)" fill="#333"/><rect x="871.29" y="80.25" width="6.42" height="6.42" transform="translate(197.12 642.81) rotate(-45)" fill="#333"/><rect x="1042.29" y="308.25" width="6.42" height="6.42" transform="translate(85.98 830.51) rotate(-45)" fill="#333"/><rect x="871.29" y="308.25" width="6.42" height="6.42" transform="translate(35.9 709.59) rotate(-45)" fill="#333"/><rect x="1042.29" y="194.25" width="6.42" height="6.42" transform="translate(166.59 797.12) rotate(-45)" fill="#333"/><rect x="956.79" y="251.25" width="6.42" height="6.42" transform="translate(101.25 753.35) rotate(-45)" fill="#333"/><rect x="871.29" y="194.25" width="6.42" height="6.42" transform="translate(116.51 676.2) rotate(-45)" fill="#333"/><rect x="1042.29" y="422.25" width="6.42" height="6.42" transform="translate(5.37 863.9) rotate(-45)" fill="#333"/><rect x="871.29" y="422.25" width="6.42" height="6.42" transform="translate(-44.71 742.98) rotate(-45)" fill="#333"/><rect x="1042.29" y="308.25" width="6.42" height="6.42" transform="translate(85.98 830.51) rotate(-45)" fill="#333"/><rect x="956.79" y="365.25" width="6.42" height="6.42" transform="translate(20.64 786.74) rotate(-45)" fill="#333"/><rect x="871.29" y="308.25" width="6.42" height="6.42" transform="translate(35.9 709.59) rotate(-45)" fill="#333"/><rect x="1042.29" y="536.25" width="6.42" height="6.42" transform="translate(-75.24 897.29) rotate(-45)" fill="#333"/><rect x="871.29" y="536.25" width="6.42" height="6.42" transform="translate(-125.32 776.37) rotate(-45)" fill="#333"/><rect x="1042.29" y="422.25" width="6.42" height="6.42" transform="translate(5.37 863.9) rotate(-45)" fill="#333"/><rect x="956.79" y="479.25" width="6.42" height="6.42" transform="translate(-59.97 820.13) rotate(-45)" fill="#333"/><rect x="871.29" y="422.25" width="6.42" height="6.42" transform="translate(-44.71 742.98) rotate(-45)" fill="#333"/><rect x="1042.29" y="650.25" width="6.42" height="6.42" transform="translate(-155.85 930.67) rotate(-45)" fill="#333"/><rect x="871.29" y="650.25" width="6.42" height="6.42" transform="translate(-205.93 809.76) rotate(-45)" fill="#333"/><rect x="1042.29" y="536.25" width="6.42" height="6.42" transform="translate(-75.24 897.29) rotate(-45)" fill="#333"/><rect x="956.79" y="593.25" width="6.42" height="6.42" transform="translate(-140.59 853.52) rotate(-45)" fill="#333"/><rect x="871.29" y="536.25" width="6.42" height="6.42" transform="translate(-125.32 776.37) rotate(-45)" fill="#333"/><rect x="1042.29" y="764.25" width="6.42" height="6.42" transform="translate(-236.46 964.06) rotate(-45)" fill="#333"/><rect x="871.29" y="764.25" width="6.42" height="6.42" transform="translate(-286.54 843.15) rotate(-45)" fill="#333"/><rect x="1042.29" y="650.25" width="6.42" height="6.42" transform="translate(-155.85 930.67) rotate(-45)" fill="#333"/><rect x="956.79" y="707.25" width="6.42" height="6.42" transform="translate(-221.2 886.91) rotate(-45)" fill="#333"/><rect x="871.29" y="650.25" width="6.42" height="6.42" transform="translate(-205.93 809.76) rotate(-45)" fill="#333"/><rect x="1042.29" y="878.25" width="6.42" height="6.42" transform="translate(-317.07 997.45) rotate(-45)" fill="#333"/><rect x="871.29" y="878.25" width="6.42" height="6.42" transform="translate(-367.15 876.54) rotate(-45)" fill="#333"/><rect x="1042.29" y="764.25" width="6.42" height="6.42" transform="translate(-236.46 964.06) rotate(-45)" fill="#333"/><rect x="956.79" y="821.25" width="6.42" height="6.42" transform="translate(-301.81 920.3) rotate(-45)" fill="#333"/><rect x="871.29" y="764.25" width="6.42" height="6.42" transform="translate(-286.54 843.15) rotate(-45)" fill="#333"/><rect x="1042.29" y="992.25" width="6.42" height="6.42" transform="translate(-397.68 1030.84) rotate(-45)" fill="#333"/><rect x="871.29" y="992.25" width="6.42" height="6.42" transform="translate(-447.76 909.93) rotate(-45)" fill="#333"/><rect x="1042.29" y="878.25" width="6.42" height="6.42" transform="translate(-317.07 997.45) rotate(-45)" fill="#333"/><rect x="956.79" y="935.25" width="6.42" height="6.42" transform="translate(-382.42 953.69) rotate(-45)" fill="#333"/><rect x="871.29" y="878.25" width="6.42" height="6.42" transform="translate(-367.15 876.54) rotate(-45)" fill="#333"/><rect x="1042.29" y="992.25" width="6.42" height="6.42" transform="translate(-397.68 1030.84) rotate(-45)" fill="#333"/><rect x="956.79" y="1049.25" width="6.42" height="6.42" transform="translate(-463.03 987.08) rotate(-45)" fill="#333"/><rect x="871.29" y="992.25" width="6.42" height="6.42" transform="translate(-447.76 909.93) rotate(-45)" fill="#333"/><rect x="871.29" y="80.25" width="6.42" height="6.42" transform="translate(197.12 642.81) rotate(-45)" fill="#333"/><rect x="700.29" y="80.25" width="6.42" height="6.42" transform="translate(147.03 521.9) rotate(-45)" fill="#333"/><rect x="785.79" y="23.25" width="6.42" height="6.42" transform="translate(212.38 565.66) rotate(-45)" fill="#333"/><rect x="871.29" y="194.25" width="6.42" height="6.42" transform="translate(116.51 676.2) rotate(-45)" fill="#333"/><rect x="700.29" y="194.25" width="6.42" height="6.42" transform="translate(66.42 555.29) rotate(-45)" fill="#333"/><rect x="871.29" y="80.25" width="6.42" height="6.42" transform="translate(197.12 642.81) rotate(-45)" fill="#333"/><rect x="785.79" y="137.25" width="6.42" height="6.42" transform="translate(131.77 599.05) rotate(-45)" fill="#333"/><rect x="700.29" y="80.25" width="6.42" height="6.42" transform="translate(147.03 521.9) rotate(-45)" fill="#333"/><rect x="871.29" y="308.25" width="6.42" height="6.42" transform="translate(35.9 709.59) rotate(-45)" fill="#333"/><rect x="700.29" y="308.25" width="6.42" height="6.42" transform="translate(-14.19 588.67) rotate(-45)" fill="#333"/><rect x="871.29" y="194.25" width="6.42" height="6.42" transform="translate(116.51 676.2) rotate(-45)" fill="#333"/><rect x="785.79" y="251.25" width="6.42" height="6.42" transform="translate(51.16 632.44) rotate(-45)" fill="#333"/><rect x="700.29" y="194.25" width="6.42" height="6.42" transform="translate(66.42 555.29) rotate(-45)" fill="#333"/><rect x="871.29" y="422.25" width="6.42" height="6.42" transform="translate(-44.71 742.98) rotate(-45)" fill="#333"/><rect x="700.29" y="422.25" width="6.42" height="6.42" transform="translate(-94.8 622.06) rotate(-45)" fill="#333"/><rect x="871.29" y="308.25" width="6.42" height="6.42" transform="translate(35.9 709.59) rotate(-45)" fill="#333"/><rect x="785.79" y="365.25" width="6.42" height="6.42" transform="translate(-29.45 665.83) rotate(-45)" fill="#333"/><rect x="700.29" y="308.25" width="6.42" height="6.42" transform="translate(-14.19 588.67) rotate(-45)" fill="#333"/><rect x="871.29" y="536.25" width="6.42" height="6.42" transform="translate(-125.32 776.37) rotate(-45)" fill="#333"/><rect x="700.29" y="536.25" width="6.42" height="6.42" transform="translate(-175.41 655.45) rotate(-45)" fill="#333"/><rect x="871.29" y="422.25" width="6.42" height="6.42" transform="translate(-44.71 742.98) rotate(-45)" fill="#333"/><rect x="785.79" y="479.25" width="6.42" height="6.42" transform="translate(-110.06 699.22) rotate(-45)" fill="#333"/><rect x="700.29" y="422.25" width="6.42" height="6.42" transform="translate(-94.8 622.06) rotate(-45)" fill="#333"/><rect x="871.29" y="650.25" width="6.42" height="6.42" transform="translate(-205.93 809.76) rotate(-45)" fill="#333"/><rect x="700.29" y="650.25" width="6.42" height="6.42" transform="translate(-256.02 688.84) rotate(-45)" fill="#333"/><rect x="871.29" y="536.25" width="6.42" height="6.42" transform="translate(-125.32 776.37) rotate(-45)" fill="#333"/><rect x="785.79" y="593.25" width="6.42" height="6.42" transform="translate(-190.67 732.61) rotate(-45)" fill="#333"/><rect x="700.29" y="536.25" width="6.42" height="6.42" transform="translate(-175.41 655.45) rotate(-45)" fill="#333"/><rect x="871.29" y="764.25" width="6.42" height="6.42" transform="translate(-286.54 843.15) rotate(-45)" fill="#333"/><rect x="700.29" y="764.25" width="6.42" height="6.42" transform="translate(-336.63 722.23) rotate(-45)" fill="#333"/><rect x="871.29" y="650.25" width="6.42" height="6.42" transform="translate(-205.93 809.76) rotate(-45)" fill="#333"/><rect x="785.79" y="707.25" width="6.42" height="6.42" transform="translate(-271.28 766) rotate(-45)" fill="#333"/><rect x="700.29" y="650.25" width="6.42" height="6.42" transform="translate(-256.02 688.84) rotate(-45)" fill="#333"/><rect x="871.29" y="878.25" width="6.42" height="6.42" transform="translate(-367.15 876.54) rotate(-45)" fill="#333"/><rect x="700.29" y="878.25" width="6.42" height="6.42" transform="translate(-417.24 755.62) rotate(-45)" fill="#333"/><rect x="871.29" y="764.25" width="6.42" height="6.42" transform="translate(-286.54 843.15) rotate(-45)" fill="#333"/><rect x="785.79" y="821.25" width="6.42" height="6.42" transform="translate(-351.89 799.39) rotate(-45)" fill="#333"/><rect x="700.29" y="764.25" width="6.42" height="6.42" transform="translate(-336.63 722.23) rotate(-45)" fill="#333"/><rect x="871.29" y="992.25" width="6.42" height="6.42" transform="translate(-447.76 909.93) rotate(-45)" fill="#333"/><rect x="700.29" y="992.25" width="6.42" height="6.42" transform="translate(-497.85 789.01) rotate(-45)" fill="#333"/><rect x="871.29" y="878.25" width="6.42" height="6.42" transform="translate(-367.15 876.54) rotate(-45)" fill="#333"/><rect x="785.79" y="935.25" width="6.42" height="6.42" transform="translate(-432.5 832.78) rotate(-45)" fill="#333"/><rect x="700.29" y="878.25" width="6.42" height="6.42" transform="translate(-417.24 755.62) rotate(-45)" fill="#333"/><rect x="871.29" y="992.25" width="6.42" height="6.42" transform="translate(-447.76 909.93) rotate(-45)" fill="#333"/><rect x="785.79" y="1049.25" width="6.42" height="6.42" transform="translate(-513.11 866.17) rotate(-45)" fill="#333"/><rect x="700.29" y="992.25" width="6.42" height="6.42" transform="translate(-497.85 789.01) rotate(-45)" fill="#333"/><rect x="700.29" y="80.25" width="6.42" height="6.42" transform="translate(147.03 521.9) rotate(-45)" fill="#333"/><rect x="529.29" y="80.25" width="6.42" height="6.42" transform="translate(96.95 400.98) rotate(-45)" fill="#333"/><rect x="614.79" y="23.25" width="6.42" height="6.42" transform="translate(162.3 444.74) rotate(-45)" fill="#333"/><rect x="700.29" y="194.25" width="6.42" height="6.42" transform="translate(66.42 555.29) rotate(-45)" fill="#333"/><rect x="529.29" y="194.25" width="6.42" height="6.42" transform="translate(16.34 434.37) rotate(-45)" fill="#333"/><rect x="700.29" y="80.25" width="6.42" height="6.42" transform="translate(147.03 521.9) rotate(-45)" fill="#333"/><rect x="614.79" y="137.25" width="6.42" height="6.42" transform="translate(81.69 478.13) rotate(-45)" fill="#333"/><rect x="529.29" y="80.25" width="6.42" height="6.42" transform="translate(96.95 400.98) rotate(-45)" fill="#333"/><rect x="700.29" y="308.25" width="6.42" height="6.42" transform="translate(-14.19 588.67) rotate(-45)" fill="#333"/><rect x="529.29" y="308.25" width="6.42" height="6.42" transform="translate(-64.27 467.76) rotate(-45)" fill="#333"/><rect x="700.29" y="194.25" width="6.42" height="6.42" transform="translate(66.42 555.29) rotate(-45)" fill="#333"/><rect x="614.79" y="251.25" width="6.42" height="6.42" transform="translate(1.08 511.52) rotate(-45)" fill="#333"/><rect x="529.29" y="194.25" width="6.42" height="6.42" transform="translate(16.34 434.37) rotate(-45)" fill="#333"/><rect x="700.29" y="422.25" width="6.42" height="6.42" transform="translate(-94.8 622.06) rotate(-45)" fill="#333"/><rect x="529.29" y="422.25" width="6.42" height="6.42" transform="translate(-144.88 501.15) rotate(-45)" fill="#333"/><rect x="700.29" y="308.25" width="6.42" height="6.42" transform="translate(-14.19 588.67) rotate(-45)" fill="#333"/><rect x="614.79" y="365.25" width="6.42" height="6.42" transform="translate(-79.53 544.91) rotate(-45)" fill="#333"/><rect x="529.29" y="308.25" width="6.42" height="6.42" transform="translate(-64.27 467.76) rotate(-45)" fill="#333"/><rect x="700.29" y="536.25" width="6.42" height="6.42" transform="translate(-175.41 655.45) rotate(-45)" fill="#333"/><rect x="529.29" y="536.25" width="6.42" height="6.42" transform="translate(-225.49 534.54) rotate(-45)" fill="#333"/><rect x="700.29" y="422.25" width="6.42" height="6.42" transform="translate(-94.8 622.06) rotate(-45)" fill="#333"/><rect x="614.79" y="479.25" width="6.42" height="6.42" transform="translate(-160.14 578.3) rotate(-45)" fill="#333"/><rect x="529.29" y="422.25" width="6.42" height="6.42" transform="translate(-144.88 501.15) rotate(-45)" fill="#333"/><rect x="700.29" y="650.25" width="6.42" height="6.42" transform="translate(-256.02 688.84) rotate(-45)" fill="#333"/><rect x="529.29" y="650.25" width="6.42" height="6.42" transform="translate(-306.1 567.93) rotate(-45)" fill="#333"/><rect x="700.29" y="536.25" width="6.42" height="6.42" transform="translate(-175.41 655.45) rotate(-45)" fill="#333"/><rect x="614.79" y="593.25" width="6.42" height="6.42" transform="translate(-240.75 611.69) rotate(-45)" fill="#333"/><rect x="529.29" y="536.25" width="6.42" height="6.42" transform="translate(-225.49 534.54) rotate(-45)" fill="#333"/><rect x="700.29" y="764.25" width="6.42" height="6.42" transform="translate(-336.63 722.23) rotate(-45)" fill="#333"/><rect x="529.29" y="764.25" width="6.42" height="6.42" transform="translate(-386.71 601.32) rotate(-45)" fill="#333"/><rect x="700.29" y="650.25" width="6.42" height="6.42" transform="translate(-256.02 688.84) rotate(-45)" fill="#333"/><rect x="614.79" y="707.25" width="6.42" height="6.42" transform="translate(-321.36 645.08) rotate(-45)" fill="#333"/><rect x="529.29" y="650.25" width="6.42" height="6.42" transform="translate(-306.1 567.93) rotate(-45)" fill="#333"/><rect x="700.29" y="878.25" width="6.42" height="6.42" transform="translate(-417.24 755.62) rotate(-45)" fill="#333"/><rect x="529.29" y="878.25" width="6.42" height="6.42" transform="translate(-467.32 634.71) rotate(-45)" fill="#333"/><rect x="700.29" y="764.25" width="6.42" height="6.42" transform="translate(-336.63 722.23) rotate(-45)" fill="#333"/><rect x="614.79" y="821.25" width="6.42" height="6.42" transform="translate(-401.97 678.47) rotate(-45)" fill="#333"/><rect x="529.29" y="764.25" width="6.42" height="6.42" transform="translate(-386.71 601.32) rotate(-45)" fill="#333"/><rect x="700.29" y="992.25" width="6.42" height="6.42" transform="translate(-497.85 789.01) rotate(-45)" fill="#333"/><rect x="529.29" y="992.25" width="6.42" height="6.42" transform="translate(-547.93 668.1) rotate(-45)" fill="#333"/><rect x="700.29" y="878.25" width="6.42" height="6.42" transform="translate(-417.24 755.62) rotate(-45)" fill="#333"/><rect x="614.79" y="935.25" width="6.42" height="6.42" transform="translate(-482.59 711.86) rotate(-45)" fill="#333"/><rect x="529.29" y="878.25" width="6.42" height="6.42" transform="translate(-467.32 634.71) rotate(-45)" fill="#333"/><rect x="700.29" y="992.25" width="6.42" height="6.42" transform="translate(-497.85 789.01) rotate(-45)" fill="#333"/><rect x="614.79" y="1049.25" width="6.42" height="6.42" transform="translate(-563.2 745.25) rotate(-45)" fill="#333"/><rect x="529.29" y="992.25" width="6.42" height="6.42" transform="translate(-547.93 668.1) rotate(-45)" fill="#333"/><rect x="529.29" y="80.25" width="6.42" height="6.42" transform="translate(96.95 400.98) rotate(-45)" fill="#333"/><rect x="358.29" y="80.25" width="6.42" height="6.42" transform="translate(46.86 280.06) rotate(-45)" fill="#333"/><rect x="443.79" y="23.25" width="6.42" height="6.42" transform="translate(112.21 323.83) rotate(-45)" fill="#333"/><rect x="529.29" y="194.25" width="6.42" height="6.42" transform="translate(16.34 434.37) rotate(-45)" fill="#333"/><rect x="358.29" y="194.25" width="6.42" height="6.42" transform="translate(-33.75 313.45) rotate(-45)" fill="#333"/><rect x="529.29" y="80.25" width="6.42" height="6.42" transform="translate(96.95 400.98) rotate(-45)" fill="#333"/><rect x="443.79" y="137.25" width="6.42" height="6.42" transform="translate(31.6 357.22) rotate(-45)" fill="#333"/><rect x="358.29" y="80.25" width="6.42" height="6.42" transform="translate(46.86 280.06) rotate(-45)" fill="#333"/><rect x="529.29" y="308.25" width="6.42" height="6.42" transform="translate(-64.27 467.76) rotate(-45)" fill="#333"/><rect x="358.29" y="308.25" width="6.42" height="6.42" transform="translate(-114.36 346.84) rotate(-45)" fill="#333"/><rect x="529.29" y="194.25" width="6.42" height="6.42" transform="translate(16.34 434.37) rotate(-45)" fill="#333"/><rect x="443.79" y="251.25" width="6.42" height="6.42" transform="translate(-49.01 390.61) rotate(-45)" fill="#333"/><rect x="358.29" y="194.25" width="6.42" height="6.42" transform="translate(-33.75 313.45) rotate(-45)" fill="#333"/><rect x="529.29" y="422.25" width="6.42" height="6.42" transform="translate(-144.88 501.15) rotate(-45)" fill="#333"/><rect x="358.29" y="422.25" width="6.42" height="6.42" transform="translate(-194.97 380.23) rotate(-45)" fill="#333"/><rect x="529.29" y="308.25" width="6.42" height="6.42" transform="translate(-64.27 467.76) rotate(-45)" fill="#333"/><rect x="443.79" y="365.25" width="6.42" height="6.42" transform="translate(-129.62 424) rotate(-45)" fill="#333"/><rect x="358.29" y="308.25" width="6.42" height="6.42" transform="translate(-114.36 346.84) rotate(-45)" fill="#333"/><rect x="529.29" y="536.25" width="6.42" height="6.42" transform="translate(-225.49 534.54) rotate(-45)" fill="#333"/><rect x="358.29" y="536.25" width="6.42" height="6.42" transform="translate(-275.58 413.62) rotate(-45)" fill="#333"/><rect x="529.29" y="422.25" width="6.42" height="6.42" transform="translate(-144.88 501.15) rotate(-45)" fill="#333"/><rect x="443.79" y="479.25" width="6.42" height="6.42" transform="translate(-210.23 457.39) rotate(-45)" fill="#333"/><rect x="358.29" y="422.25" width="6.42" height="6.42" transform="translate(-194.97 380.23) rotate(-45)" fill="#333"/><rect x="529.29" y="650.25" width="6.42" height="6.42" transform="translate(-306.1 567.93) rotate(-45)" fill="#333"/><rect x="358.29" y="650.25" width="6.42" height="6.42" transform="translate(-356.19 447.01) rotate(-45)" fill="#333"/><rect x="529.29" y="536.25" width="6.42" height="6.42" transform="translate(-225.49 534.54) rotate(-45)" fill="#333"/><rect x="443.79" y="593.25" width="6.42" height="6.42" transform="translate(-290.84 490.78) rotate(-45)" fill="#333"/><rect x="358.29" y="536.25" width="6.42" height="6.42" transform="translate(-275.58 413.62) rotate(-45)" fill="#333"/><rect x="529.29" y="764.25" width="6.42" height="6.42" transform="translate(-386.71 601.32) rotate(-45)" fill="#333"/><rect x="358.29" y="764.25" width="6.42" height="6.42" transform="translate(-436.8 480.4) rotate(-45)" fill="#333"/><rect x="529.29" y="650.25" width="6.42" height="6.42" transform="translate(-306.1 567.93) rotate(-45)" fill="#333"/><rect x="443.79" y="707.25" width="6.42" height="6.42" transform="translate(-371.45 524.17) rotate(-45)" fill="#333"/><rect x="358.29" y="650.25" width="6.42" height="6.42" transform="translate(-356.19 447.01) rotate(-45)" fill="#333"/><rect x="529.29" y="878.25" width="6.42" height="6.42" transform="translate(-467.32 634.71) rotate(-45)" fill="#333"/><rect x="358.29" y="878.25" width="6.42" height="6.42" transform="translate(-517.41 513.79) rotate(-45)" fill="#333"/><rect x="529.29" y="764.25" width="6.42" height="6.42" transform="translate(-386.71 601.32) rotate(-45)" fill="#333"/><rect x="443.79" y="821.25" width="6.42" height="6.42" transform="translate(-452.06 557.56) rotate(-45)" fill="#333"/><rect x="358.29" y="764.25" width="6.42" height="6.42" transform="translate(-436.8 480.4) rotate(-45)" fill="#333"/><rect x="529.29" y="992.25" width="6.42" height="6.42" transform="translate(-547.93 668.1) rotate(-45)" fill="#333"/><rect x="358.29" y="992.25" width="6.42" height="6.42" transform="translate(-598.02 547.18) rotate(-45)" fill="#333"/><rect x="529.29" y="878.25" width="6.42" height="6.42" transform="translate(-467.32 634.71) rotate(-45)" fill="#333"/><rect x="443.79" y="935.25" width="6.42" height="6.42" transform="translate(-532.67 590.95) rotate(-45)" fill="#333"/><rect x="358.29" y="878.25" width="6.42" height="6.42" transform="translate(-517.41 513.79) rotate(-45)" fill="#333"/><rect x="529.29" y="992.25" width="6.42" height="6.42" transform="translate(-547.93 668.1) rotate(-45)" fill="#333"/><rect x="443.79" y="1049.25" width="6.42" height="6.42" transform="translate(-613.28 624.34) rotate(-45)" fill="#333"/><rect x="358.29" y="992.25" width="6.42" height="6.42" transform="translate(-598.02 547.18) rotate(-45)" fill="#333"/><rect x="358.29" y="80.25" width="6.42" height="6.42" transform="translate(46.86 280.06) rotate(-45)" fill="#333"/><rect x="187.29" y="80.25" width="6.42" height="6.42" transform="translate(-3.22 159.15) rotate(-45)" fill="#333"/><rect x="272.79" y="23.25" width="6.42" height="6.42" transform="translate(62.13 202.91) rotate(-45)" fill="#333"/><rect x="358.29" y="194.25" width="6.42" height="6.42" transform="translate(-33.75 313.45) rotate(-45)" fill="#333"/><rect x="187.29" y="194.25" width="6.42" height="6.42" transform="translate(-83.83 192.54) rotate(-45)" fill="#333"/><rect x="358.29" y="80.25" width="6.42" height="6.42" transform="translate(46.86 280.06) rotate(-45)" fill="#333"/><rect x="272.79" y="137.25" width="6.42" height="6.42" transform="translate(-18.48 236.3) rotate(-45)" fill="#333"/><rect x="187.29" y="80.25" width="6.42" height="6.42" transform="translate(-3.22 159.15) rotate(-45)" fill="#333"/><rect x="358.29" y="308.25" width="6.42" height="6.42" transform="translate(-114.36 346.84) rotate(-45)" fill="#333"/><rect x="187.29" y="308.25" width="6.42" height="6.42" transform="translate(-164.44 225.93) rotate(-45)" fill="#333"/><rect x="358.29" y="194.25" width="6.42" height="6.42" transform="translate(-33.75 313.45) rotate(-45)" fill="#333"/><rect x="272.79" y="251.25" width="6.42" height="6.42" transform="translate(-99.09 269.69) rotate(-45)" fill="#333"/><rect x="187.29" y="194.25" width="6.42" height="6.42" transform="translate(-83.83 192.54) rotate(-45)" fill="#333"/><rect x="358.29" y="422.25" width="6.42" height="6.42" transform="translate(-194.97 380.23) rotate(-45)" fill="#333"/><rect x="187.29" y="422.25" width="6.42" height="6.42" transform="translate(-245.05 259.32) rotate(-45)" fill="#333"/><rect x="358.29" y="308.25" width="6.42" height="6.42" transform="translate(-114.36 346.84) rotate(-45)" fill="#333"/><rect x="272.79" y="365.25" width="6.42" height="6.42" transform="translate(-179.7 303.08) rotate(-45)" fill="#333"/><rect x="187.29" y="308.25" width="6.42" height="6.42" transform="translate(-164.44 225.93) rotate(-45)" fill="#333"/><rect x="358.29" y="536.25" width="6.42" height="6.42" transform="translate(-275.58 413.62) rotate(-45)" fill="#333"/><rect x="187.29" y="536.25" width="6.42" height="6.42" transform="translate(-325.66 292.71) rotate(-45)" fill="#333"/><rect x="358.29" y="422.25" width="6.42" height="6.42" transform="translate(-194.97 380.23) rotate(-45)" fill="#333"/><rect x="272.79" y="479.25" width="6.42" height="6.42" transform="translate(-260.31 336.47) rotate(-45)" fill="#333"/><rect x="187.29" y="422.25" width="6.42" height="6.42" transform="translate(-245.05 259.32) rotate(-45)" fill="#333"/><rect x="358.29" y="650.25" width="6.42" height="6.42" transform="translate(-356.19 447.01) rotate(-45)" fill="#333"/><rect x="187.29" y="650.25" width="6.42" height="6.42" transform="translate(-406.27 326.1) rotate(-45)" fill="#333"/><rect x="358.29" y="536.25" width="6.42" height="6.42" transform="translate(-275.58 413.62) rotate(-45)" fill="#333"/><rect x="272.79" y="593.25" width="6.42" height="6.42" transform="translate(-340.92 369.86) rotate(-45)" fill="#333"/><rect x="187.29" y="536.25" width="6.42" height="6.42" transform="translate(-325.66 292.71) rotate(-45)" fill="#333"/><rect x="358.29" y="764.25" width="6.42" height="6.42" transform="translate(-436.8 480.4) rotate(-45)" fill="#333"/><rect x="187.29" y="764.25" width="6.42" height="6.42" transform="translate(-486.88 359.49) rotate(-45)" fill="#333"/><rect x="358.29" y="650.25" width="6.42" height="6.42" transform="translate(-356.19 447.01) rotate(-45)" fill="#333"/><rect x="272.79" y="707.25" width="6.42" height="6.42" transform="translate(-421.53 403.25) rotate(-45)" fill="#333"/><rect x="187.29" y="650.25" width="6.42" height="6.42" transform="translate(-406.27 326.1) rotate(-45)" fill="#333"/><rect x="358.29" y="878.25" width="6.42" height="6.42" transform="translate(-517.41 513.79) rotate(-45)" fill="#333"/><rect x="187.29" y="878.25" width="6.42" height="6.42" transform="translate(-567.49 392.88) rotate(-45)" fill="#333"/><rect x="358.29" y="764.25" width="6.42" height="6.42" transform="translate(-436.8 480.4) rotate(-45)" fill="#333"/><rect x="272.79" y="821.25" width="6.42" height="6.42" transform="translate(-502.14 436.64) rotate(-45)" fill="#333"/><rect x="187.29" y="764.25" width="6.42" height="6.42" transform="translate(-486.88 359.49) rotate(-45)" fill="#333"/><rect x="358.29" y="992.25" width="6.42" height="6.42" transform="translate(-598.02 547.18) rotate(-45)" fill="#333"/><rect x="187.29" y="992.25" width="6.42" height="6.42" transform="translate(-648.1 426.27) rotate(-45)" fill="#333"/><rect x="358.29" y="878.25" width="6.42" height="6.42" transform="translate(-517.41 513.79) rotate(-45)" fill="#333"/><rect x="272.79" y="935.25" width="6.42" height="6.42" transform="translate(-582.75 470.03) rotate(-45)" fill="#333"/><rect x="187.29" y="878.25" width="6.42" height="6.42" transform="translate(-567.49 392.88) rotate(-45)" fill="#333"/><rect x="358.29" y="992.25" width="6.42" height="6.42" transform="translate(-598.02 547.18) rotate(-45)" fill="#333"/><rect x="272.79" y="1049.25" width="6.42" height="6.42" transform="translate(-663.36 503.42) rotate(-45)" fill="#333"/><rect x="187.29" y="992.25" width="6.42" height="6.42" transform="translate(-648.1 426.27) rotate(-45)" fill="#333"/><rect x="187.29" y="80.25" width="6.42" height="6.42" transform="translate(-3.22 159.15) rotate(-45)" fill="#333"/><rect x="16.29" y="80.25" width="6.42" height="6.42" transform="translate(-53.31 38.23) rotate(-45)" fill="#333"/><rect x="101.79" y="23.25" width="6.42" height="6.42" transform="translate(12.04 82) rotate(-45)" fill="#333"/><rect x="187.29" y="194.25" width="6.42" height="6.42" transform="translate(-83.83 192.54) rotate(-45)" fill="#333"/><rect x="16.29" y="194.25" width="6.42" height="6.42" transform="translate(-133.92 71.62) rotate(-45)" fill="#333"/><rect x="187.29" y="80.25" width="6.42" height="6.42" transform="translate(-3.22 159.15) rotate(-45)" fill="#333"/><rect x="101.79" y="137.25" width="6.42" height="6.42" transform="translate(-68.57 115.39) rotate(-45)" fill="#333"/><rect x="16.29" y="80.25" width="6.42" height="6.42" transform="translate(-53.31 38.23) rotate(-45)" fill="#333"/><rect x="187.29" y="308.25" width="6.42" height="6.42" transform="translate(-164.44 225.93) rotate(-45)" fill="#333"/><rect x="16.29" y="308.25" width="6.42" height="6.42" transform="translate(-214.53 105.01) rotate(-45)" fill="#333"/><rect x="187.29" y="194.25" width="6.42" height="6.42" transform="translate(-83.83 192.54) rotate(-45)" fill="#333"/><rect x="101.79" y="251.25" width="6.42" height="6.42" transform="translate(-149.18 148.78) rotate(-45)" fill="#333"/><rect x="16.29" y="194.25" width="6.42" height="6.42" transform="translate(-133.92 71.62) rotate(-45)" fill="#333"/><rect x="187.29" y="422.25" width="6.42" height="6.42" transform="translate(-245.05 259.32) rotate(-45)" fill="#333"/><rect x="16.29" y="422.25" width="6.42" height="6.42" transform="translate(-295.14 138.4) rotate(-45)" fill="#333"/><rect x="187.29" y="308.25" width="6.42" height="6.42" transform="translate(-164.44 225.93) rotate(-45)" fill="#333"/><rect x="101.79" y="365.25" width="6.42" height="6.42" transform="translate(-229.79 182.17) rotate(-45)" fill="#333"/><rect x="16.29" y="308.25" width="6.42" height="6.42" transform="translate(-214.53 105.01) rotate(-45)" fill="#333"/><rect x="187.29" y="536.25" width="6.42" height="6.42" transform="translate(-325.66 292.71) rotate(-45)" fill="#333"/><rect x="16.29" y="536.25" width="6.42" height="6.42" transform="translate(-375.75 171.79) rotate(-45)" fill="#333"/><rect x="187.29" y="422.25" width="6.42" height="6.42" transform="translate(-245.05 259.32) rotate(-45)" fill="#333"/><rect x="101.79" y="479.25" width="6.42" height="6.42" transform="translate(-310.4 215.56) rotate(-45)" fill="#333"/><rect x="16.29" y="422.25" width="6.42" height="6.42" transform="translate(-295.14 138.4) rotate(-45)" fill="#333"/><rect x="187.29" y="650.25" width="6.42" height="6.42" transform="translate(-406.27 326.1) rotate(-45)" fill="#333"/><rect x="16.29" y="650.25" width="6.42" height="6.42" transform="translate(-456.36 205.18) rotate(-45)" fill="#333"/><rect x="187.29" y="536.25" width="6.42" height="6.42" transform="translate(-325.66 292.71) rotate(-45)" fill="#333"/><rect x="101.79" y="593.25" width="6.42" height="6.42" transform="translate(-391.01 248.95) rotate(-45)" fill="#333"/><rect x="16.29" y="536.25" width="6.42" height="6.42" transform="translate(-375.75 171.79) rotate(-45)" fill="#333"/><rect x="187.29" y="764.25" width="6.42" height="6.42" transform="translate(-486.88 359.49) rotate(-45)" fill="#333"/><rect x="16.29" y="764.25" width="6.42" height="6.42" transform="translate(-536.97 238.57) rotate(-45)" fill="#333"/><rect x="187.29" y="650.25" width="6.42" height="6.42" transform="translate(-406.27 326.1) rotate(-45)" fill="#333"/><rect x="101.79" y="707.25" width="6.42" height="6.42" transform="translate(-471.62 282.34) rotate(-45)" fill="#333"/><rect x="16.29" y="650.25" width="6.42" height="6.42" transform="translate(-456.36 205.18) rotate(-45)" fill="#333"/><rect x="187.29" y="878.25" width="6.42" height="6.42" transform="translate(-567.49 392.88) rotate(-45)" fill="#333"/><rect x="16.29" y="878.25" width="6.42" height="6.42" transform="translate(-617.58 271.96) rotate(-45)" fill="#333"/><rect x="187.29" y="764.25" width="6.42" height="6.42" transform="translate(-486.88 359.49) rotate(-45)" fill="#333"/><rect x="101.79" y="821.25" width="6.42" height="6.42" transform="translate(-552.23 315.73) rotate(-45)" fill="#333"/><rect x="16.29" y="764.25" width="6.42" height="6.42" transform="translate(-536.97 238.57) rotate(-45)" fill="#333"/><rect x="187.29" y="992.25" width="6.42" height="6.42" transform="translate(-648.1 426.27) rotate(-45)" fill="#333"/><rect x="16.29" y="992.25" width="6.42" height="6.42" transform="translate(-698.19 305.35) rotate(-45)" fill="#333"/><rect x="187.29" y="878.25" width="6.42" height="6.42" transform="translate(-567.49 392.88) rotate(-45)" fill="#333"/><rect x="101.79" y="935.25" width="6.42" height="6.42" transform="translate(-632.84 349.12) rotate(-45)" fill="#333"/><rect x="16.29" y="878.25" width="6.42" height="6.42" transform="translate(-617.58 271.96) rotate(-45)" fill="#333"/><rect x="187.29" y="992.25" width="6.42" height="6.42" transform="translate(-648.1 426.27) rotate(-45)" fill="#333"/><rect x="101.79" y="1049.25" width="6.42" height="6.42" transform="translate(-713.45 382.51) rotate(-45)" fill="#333"/><rect x="16.29" y="992.25" width="6.42" height="6.42" transform="translate(-698.19 305.35) rotate(-45)" fill="#333"/><rect x="16.29" y="80.25" width="6.42" height="6.42" transform="translate(-53.31 38.23) rotate(-45)" fill="#333"/><rect x="16.29" y="194.25" width="6.42" height="6.42" transform="translate(-133.92 71.62) rotate(-45)" fill="#333"/><rect x="16.29" y="80.25" width="6.42" height="6.42" transform="translate(-53.31 38.23) rotate(-45)" fill="#333"/><rect x="16.29" y="308.25" width="6.42" height="6.42" transform="translate(-214.53 105.01) rotate(-45)" fill="#333"/><rect x="16.29" y="194.25" width="6.42" height="6.42" transform="translate(-133.92 71.62) rotate(-45)" fill="#333"/><rect x="16.29" y="422.25" width="6.42" height="6.42" transform="translate(-295.14 138.4) rotate(-45)" fill="#333"/><rect x="16.29" y="308.25" width="6.42" height="6.42" transform="translate(-214.53 105.01) rotate(-45)" fill="#333"/><rect x="16.29" y="536.25" width="6.42" height="6.42" transform="translate(-375.75 171.79) rotate(-45)" fill="#333"/><rect x="16.29" y="422.25" width="6.42" height="6.42" transform="translate(-295.14 138.4) rotate(-45)" fill="#333"/><rect x="16.29" y="650.25" width="6.42" height="6.42" transform="translate(-456.36 205.18) rotate(-45)" fill="#333"/><rect x="16.29" y="536.25" width="6.42" height="6.42" transform="translate(-375.75 171.79) rotate(-45)" fill="#333"/><rect x="16.29" y="764.25" width="6.42" height="6.42" transform="translate(-536.97 238.57) rotate(-45)" fill="#333"/><rect x="16.29" y="650.25" width="6.42" height="6.42" transform="translate(-456.36 205.18) rotate(-45)" fill="#333"/><rect x="16.29" y="878.25" width="6.42" height="6.42" transform="translate(-617.58 271.96) rotate(-45)" fill="#333"/><rect x="16.29" y="764.25" width="6.42" height="6.42" transform="translate(-536.97 238.57) rotate(-45)" fill="#333"/><rect x="16.29" y="992.25" width="6.42" height="6.42" transform="translate(-698.19 305.35) rotate(-45)" fill="#333"/><rect x="16.29" y="878.25" width="6.42" height="6.42" transform="translate(-617.58 271.96) rotate(-45)" fill="#333"/><rect x="16.29" y="992.25" width="6.42" height="6.42" transform="translate(-698.19 305.35) rotate(-45)" fill="#333"/><rect x="834.46" y="393.52" width="251.07" height="291.19" fill="#212121"/><path d="M1037.84,484.92V551.6a72.64,72.64,0,0,1-12.35,42.77l-32.32,52.07" fill="none" stroke="#7759ff" stroke-miterlimit="10" stroke-width="12.52"/><path d="M880.05,494.94v59.5a71.87,71.87,0,0,0,12.35,38.67l32.32,47.07" fill="none" stroke="#7759ff" stroke-miterlimit="10" stroke-width="12.52"/><rect x="851.6" y="623.71" width="106.46" height="40.85" transform="translate(318.35 -299.09) rotate(22.68)" fill="#212121"/><rect x="952.42" y="627.63" width="103.79" height="40.4" transform="translate(2180.77 858.3) rotate(157.32)" fill="#212121"/><rect x="1016.05" y="474.57" width="53.32" height="23.09" transform="translate(649.14 -594.93) rotate(45)" fill="#212121"/><rect x="853.06" y="483.99" width="38.28" height="59.02" transform="translate(618.56 -466.34) rotate(45)" fill="#212121"/><path d="M995.15,482.76l0,78.38a22.51,22.51,0,0,1-4.17,13l-31.49,44.16-31.45-44.13a22.52,22.52,0,0,1-4.17-13V526.42" fill="none" stroke="#7759ff" stroke-miterlimit="10" stroke-width="12.52"/><path d="M943.8,540a53.7,53.7,0,0,1-40.24-15.81q3.18-8.07,6.35-16.16a50,50,0,0,0,40.24,15.82Q947,531.9,943.8,540Z" fill="#212121"/><path d="M968,495.83c1.93,12.22-7.49,20.77-8,21.26-6.47,5.67-14.05,5.92-17.24,6-13.47.45-22.82-8-24.7-9.77-12-11.34-11.92-27.7-11.9-31.93,0-.7,0-1.27,0-1.67.64-17.72,11.62-30.56,18.69-35.84l.58-.42c10.89-7.86,23.14-8,25.29-8a44.69,44.69,0,0,1,27.91,10.34c14.21,11.78,16.19,28.79,16.54,34.49,0,.73,0,1.47,0,1.47v2.24" fill="none" stroke="#7759ff" stroke-miterlimit="10" stroke-width="12.52"/><path d="M970.45,603.67l-11.09,5.78-10.76-5.78v-9.25a27.72,27.72,0,0,0,21.85,0Z" fill="#7759ff"/><circle cx="951.33" cy="496.98" r="16.66" fill="none" stroke="#7759ff" stroke-miterlimit="10" stroke-width="12.52"/></svg>