<svg xmlns="http://www.w3.org/2000/svg" viewBox="0 0 130.46 63.04"><path d="M125.17 44.78a22.67 22.67 0 0 1-2.63 5.34l-1.89 3a7.71 7.71 0 0 1-3.59 3.06l-7.08 3 7.61-12.26a16.59 16.59 0 0 0 2.82-9.77V19.56l4.61 4.61a4.37 4.37 0 0 1 1.28 3.09V37a22.62 22.62 0 0 1-1.13 7.78zM95.41 59.17 87.7 56a8.52 8.52 0 0 1-3.7-3l-2.16-3.15a22.28 22.28 0 0 1-2.86-6 22.74 22.74 0 0 1-1-6v-4.06a5.08 5.08 0 0 1 1.48-3.57l4.41-4.41v11.94a16.51 16.51 0 0 0 2.81 8.77zm.12.08h-.24l.09-.06.15.06zm14.45-.07-.04.07h-.12l.16-.07zM114.54 18a15.9 15.9 0 0 0-4.42-10.94 14.57 14.57 0 0 0-19.27-1.33 15.91 15.91 0 0 0-5.94 11.6c-.23 4.77 1.56 9.64 5.77 12.25a11.59 11.59 0 0 0 7.76 1.71 9 9 0 0 0 3.83-1.57 9.7 9.7 0 0 0 3.41-4.37 7.57 7.57 0 0 0 0-5.32c-.12-.3-1.68-4.12-5.1-4.38a5.3 5.3 0 0 0-4.38 1.85 4.5 4.5 0 0 0-.84 2.33 4.23 4.23 0 0 0 .34 1.52A3.77 3.77 0 0 1 97.88 19a3.53 3.53 0 0 1 2.29 0 3.28 3.28 0 0 1 1.72 1.21 3.31 3.31 0 0 1 .48 2.53 3.62 3.62 0 0 1-1.52 2.12 4.39 4.39 0 0 1-2 .78 6.63 6.63 0 0 1-2.39-.09 6.3 6.3 0 0 1-2.84-1.23c-2-1.6-2.63-4.36-2.42-6.93a9.85 9.85 0 0 1 3-6.08 8.3 8.3 0 0 1 6-2.23 8.78 8.78 0 0 1 6.5 3.42 10.34 10.34 0 0 1 1.84 4.29 9.59 9.59 0 0 1 .2 1.6v20.74a3 3 0 0 1-.56 1.75l-4.55 6.38a10.58 10.58 0 0 1-2.81 0L96.2 40.9a3 3 0 0 1-.56-1.75v-5.71a14.5 14.5 0 0 1-5.86-2.11v7.83a8.85 8.85 0 0 0 1.64 5.14l10.71 15 10.71-15a8.8 8.8 0 0 0 1.65-5.15v-20a2.83 2.83 0 0 0 0-.41z" fill="#7c59ff"/><path d="M70 29.85a9.37 9.37 0 0 0-1.69-2.94 9.19 9.19 0 0 0-6.76-2.8h-9.26a.84.84 0 0 0-.81 1.08l1 3.37a.86.86 0 0 0 .81.6h8.18a4.24 4.24 0 0 1 3 1.14 4 4 0 0 1 .7 1.3 10.69 10.69 0 0 1 0 5.87v.05c-.53 1.84-1.13 3.94-2 4.24s-3-1.06-4.13-2.54a7 7 0 0 1-1.31-3.35.82.82 0 0 1 0-.35l1-3.07a.85.85 0 0 0-.8-1.09h-3.59a.85.85 0 0 0-.82.6l-.8 2.69-1.28 3.36a2.79 2.79 0 0 0-.12.34c0 .13-.1.3-.18.49a4.64 4.64 0 0 1-1.57 1.81c-1.65 1.21-4.14 1.18-5.48 1.16-1.8 0-3.36 0-4.77-1a6.45 6.45 0 0 1-1.66-1.83 6.26 6.26 0 0 1-.85-2.3l-.69-2.54a35.07 35.07 0 0 0-2.16-5.42l-2.28-4.48a.84.84 0 0 0-1.3-.19l-2.66 2.45a.85.85 0 0 0-.14 1.06 34.84 34.84 0 0 1 1.83 3.34 30.17 30.17 0 0 1 1.88 4.68l.61 2.3c0 .14.07.27.1.4A17.83 17.83 0 0 1 29.17 40a18.1 18.1 0 0 1-5.68 1.79h-3.16a.88.88 0 0 0-.82.6l-1 3.34a.86.86 0 0 0 .82 1.11h4.58a22.93 22.93 0 0 0 7.55-2.32 22.53 22.53 0 0 0 2.77-1.69 10.35 10.35 0 0 0 2.17 2.06c2.69 1.9 5.42 1.93 7.61 2 1.8 0 5.52.08 8.54-2.13A10.11 10.11 0 0 0 55 42.25c1.41 1.89 4.42 4.61 7.81 4.61a6.17 6.17 0 0 0 2-.31c3.4-1.14 4.39-4.58 5.27-7.62a15.76 15.76 0 0 0-.08-9.08zm-48.38 8.48a.86.86 0 0 0 1.24.54l3-1.63a.87.87 0 0 0 .42-.93l-3.35-14.64a.85.85 0 0 0-1.21-.57l-3.21 1.64a.86.86 0 0 0-.44 1zm-8.77-10.59A26 26 0 0 0 6.69 24a.85.85 0 0 0-1.16.57l-.83 3.22a.85.85 0 0 0 .48 1 17.57 17.57 0 0 1 4.46 2.85c1.82 1.5 3.88 3.19 3.8 4.44-.06.81-.84 1.76-2.33 2.84a17.91 17.91 0 0 1-3.93 1.7l-2.86 1a.87.87 0 0 0-.6.75l-.29 3.43a.86.86 0 0 0 1.09.89l4.39-1.33A20.49 20.49 0 0 0 14.08 43c1-.75 4.15-3 4.39-6.58.27-3.83-2.86-6.42-5.62-8.68z" fill="#4d4d4d"/></svg>